<svg id="Layer_1" height="512" viewBox="0 0 512 512" width="512" xmlns="http://www.w3.org/2000/svg" data-name="Layer 1"><path d="m295.137 120.729 8.773 7.358.302-.359-19.075-15.999-158.918 189.087 10.302 8.641z" fill="#d4e1f4"/><path d="m100.877 425.956a6.023 6.023 0 0 0 1.856-.294l110.642-36.016a15.966 15.966 0 0 0 7.325-4.946l190.362-227.428a26.034 26.034 0 0 0 -3.231-36.608l-65.662-55.073a26.036 26.036 0 0 0 -36.612 3.191l-190.819 227.042a15.987 15.987 0 0 0 -3.6 8.068l-16.2 115.229a6 6 0 0 0 5.942 6.835zm12.9-54.655 32.765 27.48-38.387 12.5zm40.9-46.615 158.729-189.247 30.648 25.705-158.728 189.247zm-9.195-7.711-19.265-16.159 158.92-189.087 19.075 16zm57.11 63.561-42.6 13.866-44.246-37.11 6.238-44.364zm11.2-6.271-19.272-16.165 158.728-189.244 19.078 16zm100.95-297.765a14.018 14.018 0 0 1 19.715-1.718l65.663 55.073a14.02 14.02 0 0 1 1.74 19.713l-21.833 26.084-87.17-73.113z" fill="#0635c9"/><path d="m432.047 446.49a6 6 0 0 0 -6-6h-340.094a6 6 0 1 0 0 12h340.094a6 6 0 0 0 6-6z" fill="#1ae5be"/></svg>