<svg width="28" height="28" viewBox="0 0 28 28" fill="none" xmlns="http://www.w3.org/2000/svg">
<path d="M16.1403 6.60236L16.6201 7.00475L16.6366 6.98511L15.5934 6.11017L6.9026 16.4509L7.46599 16.9234L16.1403 6.60236Z" fill="#D4E1F4"/>
<path d="M5.5167 23.2945C5.55117 23.2945 5.58542 23.289 5.6182 23.2784L11.6689 21.3088C11.8253 21.2581 11.9641 21.1643 12.0695 21.0383L22.4799 8.60081C22.7213 8.31162 22.8383 7.93855 22.8052 7.56331C22.772 7.18807 22.5916 6.84125 22.3032 6.59881L18.7124 3.587C18.4234 3.34532 18.0505 3.22798 17.6752 3.26069C17.2999 3.2934 16.9529 3.47348 16.7101 3.76151L6.27473 16.1779C6.16896 16.3035 6.10073 16.4564 6.07785 16.6191L5.19191 22.9207C5.18538 22.9672 5.1889 23.0145 5.20223 23.0595C5.21557 23.1046 5.23841 23.1462 5.26921 23.1816C5.30002 23.2171 5.33807 23.2455 5.38079 23.2649C5.42351 23.2844 5.46992 23.2945 5.51687 23.2945H5.5167ZM6.22217 20.3055L8.01401 21.8083L5.91472 22.4919L6.22217 20.3055ZM8.45889 17.7563L17.1394 7.40682L18.8154 8.81256L10.135 19.162L8.45889 17.7563ZM7.95604 17.3346L6.90248 16.4509L15.5934 6.11018L16.6366 6.98518L7.95604 17.3346ZM11.0792 20.8106L8.74955 21.5689L6.32985 19.5394L6.67099 17.1132L11.0792 20.8106ZM11.6917 20.4676L10.6378 19.5836L19.3182 9.23431L20.3616 10.1093L11.6917 20.4676ZM17.2124 4.18359C17.3432 4.02847 17.53 3.93148 17.7321 3.91387C17.9342 3.89626 18.135 3.95946 18.2906 4.08964L21.8816 7.10144C22.0368 7.232 22.134 7.41876 22.1518 7.62081C22.1696 7.82287 22.1067 8.02376 21.9767 8.1795L20.7827 9.60596L16.0156 5.6076L17.2124 4.18359Z" fill="#0635C9"/>
<path d="M23.6276 24.4174C23.6276 24.3304 23.593 24.2469 23.5315 24.1854C23.4699 24.1239 23.3865 24.0893 23.2994 24.0893H4.70055C4.61352 24.0893 4.53006 24.1239 4.46853 24.1854C4.40699 24.2469 4.37242 24.3304 4.37242 24.4174C4.37242 24.5044 4.40699 24.5879 4.46853 24.6494C4.53006 24.711 4.61352 24.7455 4.70055 24.7455H23.2994C23.3865 24.7455 23.4699 24.711 23.5315 24.6494C23.593 24.5879 23.6276 24.5044 23.6276 24.4174V24.4174Z" fill="#1AE5BE"/>
</svg>
